<svg width="32" height="32" viewBox="0 0 32 32" fill="none" xmlns="http://www.w3.org/2000/svg">
<path d="M31.4506 0H0V32H31.4506V0Z" fill="#F16D7F"/>
<g clip-path="url(#clip0_1_21)">
<path d="M15.3992 12.6816C13.284 12.6816 11.5779 14.3849 11.5779 16.4967C11.5779 18.6084 13.284 20.3117 15.3992 20.3117C17.5143 20.3117 19.2204 18.6084 19.2204 16.4967C19.2204 14.3849 17.5143 12.6816 15.3992 12.6816ZM15.3992 18.9769C14.0323 18.9769 12.9149 17.8646 12.9149 16.4967C12.9149 15.1287 14.029 14.0164 15.3992 14.0164C16.7693 14.0164 17.8835 15.1287 17.8835 16.4967C17.8835 17.8646 16.766 18.9769 15.3992 18.9769V18.9769ZM20.268 12.5256C20.268 13.0203 19.8689 13.4154 19.3767 13.4154C18.8812 13.4154 18.4854 13.017 18.4854 12.5256C18.4854 12.0342 18.8845 11.6357 19.3767 11.6357C19.8689 11.6357 20.268 12.0342 20.268 12.5256ZM22.7988 13.4287C22.7423 12.2367 22.4696 11.1808 21.5949 10.3109C20.7236 9.441 19.666 9.16873 18.4721 9.10897C17.2416 9.03924 13.5534 9.03924 12.3229 9.10897C11.1323 9.16541 10.0747 9.43768 9.20007 10.3076C8.32541 11.1775 8.05603 12.2334 7.99617 13.4254C7.92633 14.6539 7.92633 18.3361 7.99617 19.5646C8.0527 20.7566 8.32541 21.8125 9.20007 22.6824C10.0747 23.5523 11.129 23.8246 12.3229 23.8844C13.5534 23.9541 17.2416 23.9541 18.4721 23.8844C19.666 23.8279 20.7236 23.5556 21.5949 22.6824C22.4663 21.8125 22.739 20.7566 22.7988 19.5646C22.8687 18.3361 22.8687 14.6572 22.7988 13.4287V13.4287ZM21.2091 20.8828C20.9497 21.5336 20.4476 22.0349 19.7924 22.2972C18.8113 22.6857 16.4833 22.5961 15.3992 22.5961C14.315 22.5961 11.9837 22.6824 11.0059 22.2972C10.3541 22.0383 9.8519 21.5369 9.58917 20.8828C9.20007 19.9033 9.28986 17.5791 9.28986 16.4967C9.28986 15.4142 9.20339 13.0867 9.58917 12.1105C9.84858 11.4597 10.3508 10.9584 11.0059 10.6961C11.987 10.3076 14.315 10.3972 15.3992 10.3972C16.4833 10.3972 18.8146 10.3109 19.7924 10.6961C20.4442 10.9551 20.9464 11.4564 21.2091 12.1105C21.5983 13.09 21.5085 15.4142 21.5085 16.4967C21.5085 17.5791 21.5983 19.9066 21.2091 20.8828Z" fill="white"/>
</g>
<defs>
<clipPath id="clip0_1_21">
<rect width="14.8991" height="17" fill="white" transform="translate(7.9463 8)"/>
</clipPath>
</defs>
</svg>
