<svg width="32" height="32" viewBox="0 0 32 32" fill="none" xmlns="http://www.w3.org/2000/svg">
<path d="M31.4506 0H0V32H31.4506V0Z" fill="white"/>
<g clip-path="url(#clip0_1_22)">
<path d="M16.2648 8.20312C13.0802 8.20312 9.93272 10.3406 9.93272 13.8C9.93272 16 11.1619 17.25 11.9068 17.25C12.2141 17.25 12.3911 16.3875 12.3911 16.1438C12.3911 15.8531 11.6554 15.2344 11.6554 14.025C11.6554 11.5125 13.5551 9.73125 16.0134 9.73125C18.1272 9.73125 19.6916 10.9406 19.6916 13.1625C19.6916 14.8219 19.0305 17.9344 16.8887 17.9344C16.1158 17.9344 15.4547 17.3719 15.4547 16.5656C15.4547 15.3844 16.2741 14.2406 16.2741 13.0219C16.2741 10.9531 13.3595 11.3281 13.3595 13.8281C13.3595 14.3531 13.4247 14.9344 13.6575 15.4125C13.2291 17.2687 12.3538 20.0344 12.3538 21.9469C12.3538 22.5375 12.4376 23.1188 12.4935 23.7094C12.599 23.8281 12.5463 23.8156 12.7077 23.7563C14.2721 21.6 14.2162 21.1781 14.9239 18.3562C15.3057 19.0875 16.2928 19.4812 17.075 19.4812C20.3714 19.4812 21.852 16.2469 21.852 13.3313C21.852 10.2281 19.1888 8.20312 16.2648 8.20312Z" fill="black"/>
</g>
<defs>
<clipPath id="clip0_1_22">
<rect width="11.9193" height="16" fill="white" transform="translate(9.93272 8)"/>
</clipPath>
</defs>
</svg>
